<svg width="608" height="554" viewBox="0 0 608 554" fill="none" xmlns="http://www.w3.org/2000/svg">
<path d="M589.842 554.001C599.627 554.001 607.614 546.156 607.763 536.371C608.512 487.602 612.441 415.668 520.597 395.773C446.272 379.674 490.339 247.589 290.174 256.124C146.489 262.25 184.661 383.36 72.9418 393.446C-1.39801 400.158 -2.04132 494.179 0.814871 537.26C1.43988 546.683 9.25676 554.003 18.7009 554.003H589.842V554.001Z" fill="#1D23D3"/>
<path opacity="0.55" d="M520.596 395.773C446.271 379.673 490.337 247.589 290.173 256.124C255.999 257.58 232.124 265.549 214.062 276.976C220.148 276.179 226.606 275.617 233.49 275.324C433.654 266.79 389.588 398.874 463.912 414.974C554.777 434.656 551.901 505.274 551.104 554.002H589.841C599.626 554.002 607.613 546.157 607.762 536.372C608.511 487.603 612.44 415.668 520.596 395.773Z" fill="#1D23D3"/>
<path d="M205.484 0H202.324V230.577H205.484V0Z" fill="#FA7414"/>
<path d="M432.084 0H428.924V265.997H432.084V0Z" fill="#FA7414"/>
<path d="M431.78 250.492L196.771 223.062C186.727 221.89 177.635 229.082 176.464 239.125L158.924 389.401C157.751 399.445 164.943 408.537 174.987 409.709L409.996 437.139C420.04 438.311 429.132 431.119 430.303 421.076L447.843 270.8C449.014 260.757 441.824 251.665 431.78 250.492Z" fill="#E3E4FF"/>
<path d="M446.106 285.675L447.842 270.8C449.014 260.756 441.823 251.664 431.779 250.492L196.771 223.062C186.728 221.89 177.635 229.082 176.464 239.125L174.729 254L446.106 285.675Z" fill="#0A63F9"/>
<path d="M363.646 403.615L249.616 387.581C247.456 387.278 245.505 386.128 244.192 384.386C242.88 382.644 242.313 380.451 242.617 378.291L252.542 307.702C252.846 305.541 253.995 303.59 255.738 302.278C257.48 300.965 259.672 300.398 261.832 300.702L269.977 301.847L269.214 307.277L261.069 306.132C260.349 306.031 259.618 306.22 259.037 306.657C258.457 307.095 258.073 307.745 257.972 308.465L248.047 379.055C247.945 379.775 248.134 380.506 248.572 381.086C249.009 381.667 249.66 382.05 250.38 382.151L364.409 398.185C365.129 398.286 365.86 398.097 366.441 397.66C367.022 397.222 367.405 396.572 367.506 395.852L377.432 325.262C377.533 324.542 377.344 323.811 376.906 323.231C376.469 322.65 375.818 322.267 375.098 322.165L366.953 321.02L367.717 315.59L375.862 316.736C378.022 317.039 379.973 318.189 381.286 319.931C382.598 321.673 383.165 323.866 382.861 326.026L372.936 396.615C372.632 398.775 371.483 400.727 369.74 402.039C367.998 403.352 365.806 403.919 363.646 403.615Z" fill="#FA7414"/>
<path d="M282.578 389.447L288.008 390.211L286.481 401.071L281.051 400.307L282.578 389.447Z" fill="#FA7414"/>
<path d="M274.093 410.404L268.664 409.64L269.427 404.21C269.731 402.05 270.88 400.099 272.622 398.786C274.365 397.474 276.557 396.907 278.717 397.211L305.867 401.028L305.104 406.458L277.954 402.641C277.234 402.539 276.503 402.728 275.922 403.166C275.341 403.603 274.958 404.254 274.857 404.974L274.093 410.404Z" fill="#FA7414"/>
<path d="M326.02 395.555L331.45 396.319L329.922 407.179L324.493 406.415L326.02 395.555Z" fill="#FA7414"/>
<path d="M339.254 419.566L333.825 418.802L334.588 413.372C334.689 412.652 334.5 411.922 334.063 411.341C333.625 410.76 332.975 410.377 332.255 410.276L318.68 408.367L319.443 402.937L333.018 404.846C335.178 405.15 337.129 406.299 338.442 408.041C339.755 409.783 340.322 411.976 340.018 414.136L339.254 419.566Z" fill="#FA7414"/>
<path d="M263.615 406.162L345.065 417.615L344.301 423.045L262.852 411.592L263.615 406.162Z" fill="#FA7414"/>
<path d="M351.598 390.846L264.718 378.63C262.558 378.327 260.607 377.177 259.294 375.435C257.982 373.693 257.415 371.5 257.719 369.34L269.171 287.891C269.475 285.73 270.624 283.779 272.367 282.467C274.109 281.154 276.301 280.587 278.461 280.891L365.341 293.107C367.501 293.411 369.452 294.56 370.765 296.302C372.077 298.045 372.644 300.237 372.341 302.397L360.888 383.847C360.584 386.007 359.435 387.958 357.693 389.271C355.95 390.583 353.758 391.15 351.598 390.846ZM277.698 286.321C276.978 286.22 276.247 286.409 275.666 286.846C275.086 287.284 274.702 287.934 274.601 288.654L263.149 370.104C263.047 370.824 263.236 371.554 263.674 372.135C264.111 372.716 264.762 373.099 265.482 373.2L352.361 385.416C353.081 385.518 353.812 385.329 354.393 384.891C354.974 384.454 355.357 383.803 355.458 383.083L366.911 301.634C367.012 300.914 366.823 300.183 366.385 299.602C365.948 299.021 365.297 298.638 364.577 298.537L277.698 286.321Z" fill="#FA7414"/>
<path d="M270.74 296.417L368.48 310.16L367.716 315.59L269.977 301.847L270.74 296.417Z" fill="#FA7414"/>
<path d="M280.031 289.417L285.461 290.181L284.698 295.611L279.268 294.847L280.031 289.417Z" fill="#FA7414"/>
<path d="M290.891 290.945L296.321 291.708L295.557 297.138L290.127 296.375L290.891 290.945Z" fill="#FA7414"/>
<path d="M301.752 292.472L307.182 293.235L306.418 298.665L300.988 297.902L301.752 292.472Z" fill="#FA7414"/>
<path d="M248.006 359.668L261.581 361.577L260.817 367.007L247.242 365.098L248.006 359.668Z" fill="#FA7414"/>
<path d="M359.318 375.32L372.893 377.229L372.13 382.659L358.555 380.75L359.318 375.32Z" fill="#FA7414"/>
<path d="M277.359 308.422L282.789 309.186L282.026 314.616L276.596 313.852L277.359 308.422Z" fill="#FA7414"/>
<path d="M353.379 319.112L358.809 319.875L358.045 325.305L352.615 324.542L353.379 319.112Z" fill="#FA7414"/>
<path d="M345.744 373.411L351.174 374.175L350.411 379.605L344.981 378.841L345.744 373.411Z" fill="#FA7414"/>
<path d="M269.725 362.722L275.155 363.486L274.391 368.916L268.961 368.152L269.725 362.722Z" fill="#FA7414"/>
<path d="M293.351 352.201L287.921 351.438L288.685 346.008L280.54 344.863C280.028 344.791 279.547 344.576 279.152 344.243C278.757 343.91 278.465 343.472 278.308 342.98C278.151 342.487 278.137 341.961 278.266 341.461C278.396 340.96 278.664 340.507 279.04 340.153L291.808 328.105C292.222 327.715 292.746 327.463 293.309 327.384C293.871 327.304 294.445 327.402 294.95 327.663C295.454 327.924 295.866 328.336 296.126 328.84C296.387 329.345 296.484 329.919 296.405 330.482L294.878 341.341L297.593 341.723L296.83 347.153L294.115 346.771L293.351 352.201ZM286.953 340.227L289.448 340.578L289.887 337.458L286.953 340.227Z" fill="#FA7414"/>
<path d="M342.222 359.073L336.792 358.309L337.556 352.88L329.411 351.734C328.899 351.663 328.418 351.448 328.023 351.115C327.629 350.781 327.336 350.343 327.179 349.851C327.022 349.359 327.008 348.832 327.137 348.332C327.267 347.832 327.535 347.379 327.911 347.024L340.679 334.976C341.093 334.586 341.617 334.334 342.18 334.255C342.742 334.176 343.316 334.274 343.821 334.535C344.325 334.796 344.737 335.207 344.997 335.712C345.258 336.217 345.356 336.79 345.276 337.353L343.749 348.213L346.464 348.595L345.701 354.025L342.986 353.643L342.222 359.073ZM335.824 347.099L338.319 347.45L338.758 344.33L335.824 347.099Z" fill="#FA7414"/>
<path d="M315.073 355.255L309.643 354.492C307.483 354.188 305.532 353.039 304.219 351.296C302.906 349.554 302.339 347.362 302.643 345.202L303.788 337.057C304.092 334.896 305.242 332.945 306.984 331.633C308.726 330.32 310.918 329.753 313.079 330.057L318.509 330.82C320.669 331.124 322.62 332.274 323.932 334.016C325.245 335.758 325.812 337.95 325.508 340.111L324.363 348.256C324.059 350.416 322.91 352.367 321.168 353.679C319.425 354.992 317.233 355.559 315.073 355.255ZM312.315 335.487C311.595 335.386 310.864 335.575 310.283 336.012C309.703 336.45 309.32 337.1 309.218 337.82L308.073 345.965C307.972 346.685 308.161 347.416 308.598 347.997C309.036 348.577 309.686 348.961 310.406 349.062L315.836 349.825C316.556 349.927 317.287 349.738 317.868 349.3C318.449 348.862 318.832 348.212 318.933 347.492L320.078 339.347C320.179 338.627 319.991 337.896 319.553 337.315C319.115 336.735 318.465 336.352 317.745 336.25L312.315 335.487Z" fill="#FA7414"/>
<path d="M280.584 364.249L340.314 372.648L339.55 378.078L279.82 369.679L280.584 364.249Z" fill="#FA7414"/>
<path d="M288.221 309.949L347.95 318.348L347.187 323.778L287.457 315.379L288.221 309.949Z" fill="#FA7414"/>
<path d="M202.432 243.828C202.117 246.527 199.673 248.46 196.975 248.146C194.276 247.83 192.343 245.387 192.659 242.688C192.974 239.99 195.416 238.057 198.116 238.372C200.816 238.687 202.748 241.13 202.432 243.828Z" fill="white"/>
<path d="M226.006 246.58C225.69 249.279 223.247 251.211 220.548 250.898C217.85 250.582 215.917 248.139 216.231 245.44C216.546 242.741 218.99 240.809 221.688 241.124C224.388 241.438 226.321 243.882 226.006 246.58Z" fill="#FA7414"/>
<path d="M250.44 249.432C250.125 252.131 247.681 254.064 244.982 253.748C242.284 253.433 240.351 250.989 240.667 248.291C240.982 245.592 243.426 243.659 246.124 243.975C248.823 244.29 250.755 246.734 250.44 249.432Z" fill="#FFBF4D"/>
<path d="M95.0206 521.54C95.0206 521.54 91.8322 518.563 93.9719 507.267C96.1116 495.972 101.54 485.124 98.8763 472.871C96.2129 460.617 75.3328 429.718 75.2624 427.664C75.192 425.609 68.8208 463.609 79.6192 478.579C90.4175 493.548 91.7168 498.741 91.2368 506.613C90.7568 514.484 91.348 520.825 92.5318 522.655L95.0206 521.54Z" fill="#FA7414"/>
<path d="M93.0455 498.821C91.7899 503.859 91.0326 516.495 93.0385 519.518C93.2257 519.801 93.4946 519.639 93.8296 519.118C93.2187 517.029 92.8175 513.369 93.9732 507.267C96.1129 495.972 101.541 485.124 98.8776 472.87C96.2142 460.617 75.3341 429.719 75.2637 427.664C75.2637 427.664 78.4098 453.406 89.0069 471.126C96.5943 483.81 94.3012 493.782 93.0455 498.821Z" fill="#FA7414"/>
<path d="M98.8307 520.754C98.8307 520.754 92.696 505.439 103.093 492.178C113.489 478.918 130.116 461.891 130.447 455.145C130.447 455.145 134.72 487.17 121.189 496.237C107.657 505.302 98.1677 506.749 100.514 520.697L98.8307 520.754Z" fill="#FA7414"/>
<path d="M113.434 489.798C98.3454 500.781 97.1123 513.432 99.4532 519.299C99.6348 519.755 99.9797 520.034 100.434 520.183C98.4116 506.72 107.823 505.188 121.185 496.237C134.717 487.171 130.443 455.145 130.443 455.145C130.443 455.145 128.523 478.817 113.434 489.798Z" fill="#FA7414"/>
<path d="M88.74 521.099C88.74 521.099 90.7079 512.99 89.6606 504.234C88.6133 495.478 79.4676 490.554 70.9215 481.305C66.5253 476.547 65.2246 451.387 67.9499 449.048C67.9499 449.048 52.8623 467.333 55.1892 480.72C57.5161 494.107 82.1295 502.806 84.4071 509.276C86.6848 515.744 86.4961 521.175 86.4961 521.175L88.74 521.099Z" fill="#FA7414"/>
<path d="M62.8507 456.244C57.8632 469.748 62.9759 486.102 79.5402 496.26C91.7349 503.739 87.8512 519.29 87.8512 519.29L89.843 513.155C90.019 510.503 90.0387 507.413 89.6586 504.233C88.6113 495.478 79.4656 490.554 70.9195 481.305C66.6796 476.716 65.3198 453.154 67.6748 449.389C66.985 450.259 65.0326 452.788 62.8507 456.244Z" fill="#FA7414"/>
<path d="M67.6777 449.389C67.8481 449.174 67.9508 449.048 67.9508 449.048C67.8551 449.131 67.765 449.251 67.6777 449.389Z" fill="#FA7414"/>
<path d="M101.986 520.086C101.986 520.086 105.522 506.965 114.268 505.198C123.014 503.431 133.057 490.509 133.6 487.974C133.6 487.974 132.125 512.348 101.986 520.086Z" fill="#FA7414"/>
<path d="M113.769 509.537C108.41 512.217 106.182 515.821 105.391 519.092C132.224 510.463 133.601 487.975 133.601 487.975C133.494 488.476 133.004 489.393 132.238 490.538C129.606 495.149 123.234 504.804 113.769 509.537Z" fill="#FA7414"/>
<path d="M120.913 515.254H75.1699L80.6022 549.419C81.0146 552.01 83.2486 553.918 85.8725 553.918H110.21C112.834 553.918 115.068 552.01 115.48 549.419L120.913 515.254Z" fill="#FFBF4D"/>
<path d="M120.015 520.906L120.913 515.254H75.1699L76.0694 520.906H120.015Z" fill="#FF9F50"/>
<path d="M109.83 515.254L104.397 549.419C103.985 552.01 101.751 553.916 99.127 553.916H110.208C112.832 553.916 115.066 552.009 115.479 549.419L120.911 515.254H109.83Z" fill="#FF9F50"/>
<path d="M436.413 454.326H229.676V496.359H436.413V454.326Z" fill="#FFBF4D"/>
<path opacity="0.29" d="M436.413 454.326H229.676V464.529H436.413V454.326Z" fill="#F98D2B"/>
<path d="M247.652 454.326H266.52L261.462 464.533H242.584L247.652 454.326Z" fill="#F77E2D"/>
<path d="M290.163 454.326H309.032L303.974 464.533H285.105L290.163 454.326Z" fill="#F77E2D"/>
<path d="M332.674 454.326H351.544L346.486 464.533H327.617L332.674 454.326Z" fill="#F77E2D"/>
<path d="M375.187 454.326H394.045L388.988 464.533H370.129L375.187 454.326Z" fill="#F77E2D"/>
<path d="M436.413 454.326V454.61L431.488 464.533H412.639L417.697 454.326H436.413Z" fill="#F77E2D"/>
<path d="M269.986 496.363H255.412V553.838H269.986V496.363Z" fill="#FA7414"/>
<path d="M269.987 496.363H266.676V553.838H269.987V496.363Z" fill="#FA7414"/>
<path d="M411.812 496.363H397.238V553.838H411.812V496.363Z" fill="#FA7414"/>
<path d="M411.811 496.363H407.502V553.838H411.811V496.363Z" fill="#FA7414"/>
<path d="M269.986 496.318H255.412V503.557H269.986V496.318Z" fill="#FA7414"/>
<path d="M411.812 496.318H397.238V503.557H411.812V496.318Z" fill="#FA7414"/>
<path d="M269.986 447.759H255.412V454.285H269.986V447.759Z" fill="#FA7414"/>
<path d="M269.987 447.759H266.676V454.285H269.987V447.759Z" fill="#FA7414"/>
<path d="M411.812 447.759H397.238V454.285H411.812V447.759Z" fill="#FA7414"/>
<path d="M411.811 447.759H407.502V454.285H411.811V447.759Z" fill="#FA7414"/>
<path d="M269.986 453.468H255.412V454.29H269.986V453.468Z" fill="#FA7414"/>
<path d="M411.812 453.468H397.238V454.29H411.812V453.468Z" fill="#FA7414"/>
<path d="M266.521 454.325L245.671 496.36H229.676V490.56L247.652 454.325H266.521Z" fill="#0A63F9"/>
<path d="M290.164 454.325L269.314 496.36H288.183L309.032 454.325H290.164Z" fill="#0A63F9"/>
<path d="M351.543 454.325L330.694 496.36H311.824L332.673 454.325H351.543Z" fill="#0A63F9"/>
<path d="M394.044 454.325L373.205 496.36H354.336L375.185 454.325H394.044Z" fill="#0A63F9"/>
<path d="M417.695 454.325L396.846 496.36H415.704L436.411 454.61L417.695 454.325Z" fill="#0A63F9"/>
<path d="M266.522 454.325L261.464 464.532H242.586L247.654 454.325H266.522Z" fill="#0A63F9"/>
<path d="M309.032 454.325L303.974 464.532H285.105L290.163 454.325H309.032Z" fill="#0A63F9"/>
<path d="M351.546 454.325L346.488 464.532H327.619L332.676 454.325H351.546Z" fill="#0A63F9"/>
<path d="M394.045 454.325L388.988 464.532H370.129L375.187 454.325H394.045Z" fill="#0A63F9"/>
<path d="M436.413 454.61L431.488 464.532H412.639L417.697 454.325L436.413 454.61Z" fill="#0A63F9"/>
<path opacity="0.55" d="M432.851 472.512H235.438V493.537H432.851V472.512Z" fill="url(#paint0_linear_1880_962)"/>
<path d="M264.382 451.471C271.465 450.318 276.273 443.642 275.121 436.558C273.968 429.475 267.292 424.667 260.208 425.82C253.125 426.972 248.317 433.649 249.47 440.732C250.622 447.815 257.299 452.623 264.382 451.471Z" fill="#FFBF4D"/>
<path d="M268.206 438.637C268.206 435.385 265.57 432.749 262.318 432.749C259.066 432.749 256.43 435.385 256.43 438.637C256.43 441.889 259.066 444.525 262.318 444.525C265.57 444.525 268.206 441.889 268.206 438.637Z" fill="#0A63F9"/>
<path d="M406.499 451.477C413.582 450.324 418.39 443.648 417.238 436.565C416.085 429.481 409.409 424.674 402.325 425.826C395.242 426.979 390.434 433.655 391.587 440.738C392.739 447.822 399.416 452.63 406.499 451.477Z" fill="#FFBF4D"/>
<path d="M410.327 438.637C410.327 435.385 407.691 432.749 404.439 432.749C401.187 432.749 398.551 435.385 398.551 438.637C398.551 441.889 401.187 444.525 404.439 444.525C407.691 444.525 410.327 441.889 410.327 438.637Z" fill="#0A63F9"/>
<path d="M514.74 549.383H448.898L458.97 524.969V524.955L463.02 515.104L464.137 512.404L465.955 508.009L466.327 507.114L470.378 497.263L471.123 495.472L478.301 478.044C479.596 474.902 484.046 474.902 485.341 478.044L492.518 495.472L493.263 497.263L497.313 507.114L497.685 508.009L499.503 512.404L500.62 515.104L504.671 524.955V524.969L514.74 549.383Z" fill="#FFBF4D"/>
<path opacity="0.29" d="M453.214 538.915L448.9 549.381H514.746L510.432 538.915H453.214Z" fill="#F98D2B"/>
<path d="M519.048 543.124H443.637V553.784H519.048V543.124Z" fill="#FA7414"/>
<path d="M519.046 543.124H502.754V553.784H519.046V543.124Z" fill="#FA7414"/>
<path opacity="0.29" d="M512.149 543.12H502.836L495.354 524.975V524.961L491.304 515.11L490.188 512.41L488.369 508.015L487.997 507.12L483.947 497.269L483.203 495.478L477.168 480.806L478.298 478.051C479.593 474.909 484.043 474.909 485.338 478.051L492.516 495.48L493.261 497.27L497.311 507.121L497.682 508.017L499.501 512.411L500.617 515.111L504.668 524.962V524.976L512.149 543.12Z" fill="#F98D2B"/>
<path d="M497.313 507.114H466.328L470.378 497.263H493.263L497.313 507.114Z" fill="#0A63F9"/>
<path d="M504.669 524.955V524.97H458.969V524.955L463.02 515.104H500.618L504.669 524.955Z" fill="#0A63F9"/>
<path d="M497.312 507.114H487.999L483.949 497.263H493.262L497.312 507.114Z" fill="#0A63F9"/>
<path d="M504.669 524.955V524.97H495.355V524.955L491.305 515.104H500.618L504.669 524.955Z" fill="#0A63F9"/>
<path d="M95.0425 309.984C99.9624 309.984 104.239 306.411 104.903 301.538C105.023 300.663 105.084 299.771 105.084 298.864C105.084 288.012 96.2855 279.216 85.4337 279.216C84.9889 279.216 84.5482 279.236 84.1105 279.265C83.2138 268.564 74.2496 260.157 63.3161 260.157C51.7872 260.157 42.443 269.503 42.443 281.032C42.443 281.543 42.4683 282.048 42.5035 282.551C39.2321 280.724 35.4186 279.747 31.3645 279.932C20.8801 280.412 12.2651 288.799 11.5232 299.27C11.5176 299.353 11.5119 299.436 11.5077 299.519C11.1699 305.213 15.773 309.988 21.4769 309.988H95.0425V309.984Z" fill="#D7F0F9"/>
<path d="M563.99 325.418C579.528 325.418 580.388 302.033 564.869 301.279C564.445 301.258 564.018 301.248 563.589 301.248C560.819 301.248 558.151 301.687 555.648 302.491C553.571 289.833 542.586 280.175 529.341 280.175C515.805 280.175 504.632 290.264 502.914 303.333C499.701 301.793 496.105 300.93 492.304 300.93C490.181 300.93 488.122 301.199 486.157 301.705C472.57 305.205 475.422 325.419 489.452 325.419H563.99V325.418Z" fill="#D7F0F9"/>
<path d="M377.392 210.2C392.926 210.2 393.786 186.823 378.27 186.068C377.847 186.047 377.42 186.037 376.991 186.037C374.222 186.037 371.554 186.476 369.053 187.28C366.977 174.626 355.995 164.971 342.755 164.971C329.222 164.971 318.052 175.057 316.335 188.122C313.124 186.582 309.528 185.719 305.728 185.719C303.607 185.719 301.547 185.988 299.584 186.493C286.001 189.991 288.851 210.2 302.878 210.2H377.392Z" fill="#D7F0F9"/>
<path d="M130.076 253.409C150.643 253.409 167.317 236.736 167.317 216.169C167.317 195.602 150.643 178.929 130.076 178.929C109.509 178.929 92.8359 195.602 92.8359 216.169C92.8359 236.736 109.509 253.409 130.076 253.409Z" fill="#FFBF4D"/>
<path d="M130.384 178.936C140.512 185.591 147.204 197.048 147.204 210.072C147.204 230.64 130.531 247.312 109.964 247.312C109.861 247.312 109.76 247.305 109.658 247.305C115.523 251.16 122.536 253.408 130.078 253.408C150.646 253.408 167.318 236.735 167.318 216.167C167.318 195.704 150.809 179.102 130.384 178.936Z" fill="#FF9F50"/>
<defs>
<linearGradient id="paint0_linear_1880_962" x1="334.143" y1="508.656" x2="334.143" y2="474.795" gradientUnits="userSpaceOnUse">
<stop stop-color="white"/>
<stop offset="1" stop-color="white" stop-opacity="0"/>
</linearGradient>
</defs>
</svg>
